# xmcd
#
# Track frame offsets: 
#        150
#        13546
#        31098
#        48943
#        66357
#        86148
#        103020
#        120983
#        136700
#        151201
#
# Disc length: 2262 seconds
#
# Revision: 3
# Processed by: cddbd v1.4PL0 Copyright (c) Steve Scherf et al.
# Submitted via: ExactAudioCopy v0.90b4
#
DISCID=7208d40a
DTITLE=Heather Miller - Send Me An Angel
DYEAR=2000
DGENRE=Contemporary Christian
TTITLE0=Angel
TTITLE1=We Will See Him
TTITLE2=Life To Me
TTITLE3=If She Could See
TTITLE4=Winds Of Change
TTITLE5=On His Way Home
TTITLE6=Thinking Of You
TTITLE7=All My Needs
TTITLE8=In Your Arms
TTITLE9=Tell Me Why
EXTD=
EXTT0=
EXTT1=
EXTT2=
EXTT3=
EXTT4=
EXTT5=
EXTT6=
EXTT7=
EXTT8=
EXTT9=
PLAYORDER=
